<?xml version="1.0" encoding="utf-8"?>

<!DOCTYPE svg PUBLIC "-//W3C//DTD SVG 1.1//EN" "http://www.w3.org/Graphics/SVG/1.1/DTD/svg11.dtd">
<svg version="1.1" id="Layer_1" xmlns="http://www.w3.org/2000/svg" xmlns:xlink="http://www.w3.org/1999/xlink" x="0px" y="0px"
	 viewBox="0 0 1674.286 1665.73" enable-background="new 0 0 1674.286 1665.73" xml:space="preserve">
<g>
	<path d="M480.444,1552.184c242.799,114.044,480.59,103.978,714.19-9.928L480.444,1552.184z"/>
	<polygon points="343.935,1442.976 1350.379,1431.807 1301.98,1465.314 391.093,1475.863 	"/>
	<polygon points="255.204,1366.035 1433.525,1354.245 1385.127,1408.849 308.567,1419.397 	"/>
	<polygon points="157.166,1239.454 253.343,1239.454 247.758,1284.13 186.329,1281.647 	"/>
	<polygon points="195.636,1298.401 250.861,1298.401 247.138,1341.215 227.282,1342.456 	"/>
	<polygon points="353.863,1238.213 468.655,1236.972 469.275,1282.268 350.14,1282.888 	"/>
	<path d="M269.475,1068.197l-202.902,60.809l12.41,29.784l37.85-12.41l-11.789,29.163l-12.41,6.205l9.928,24.199l163.811-46.537
		l-1.862-29.163l-9.928-0.621l-0.62-24.199l14.271-3.723L269.475,1068.197z M134.207,1164.374l19.235-37.23l1.241,31.025
		L134.207,1164.374z M179.504,1151.964l1.861-31.025l26.061,22.958L179.504,1151.964z M227.282,1138.933l-17.374-22.338l24.82-5.584
		L227.282,1138.933z"/>
	<polygon points="352.312,1299.487 464.932,1300.883 466.328,1338.113 349.519,1338.578 	"/>
	<path d="M33.997,836.907l-0.931-23.734l86.559,0.465c46.818,2.049,75.353,16.984,71.202,56.775
		c-4.245,40.69-30.207,52.853-65.152,54.448l-85.163,1.862l-2.327-26.526l89.351,1.861c22.998-0.851,40.939-8.965,42.349-30.249
		c1.703-25.713-17.638-33.622-40.953-33.972L33.997,836.907z"/>
	<path d="M40.978,714.514l-1.861,18.149l69.34,2.327c34.622-5.541,53.804-24.399,56.775-57.241c0,0,29.69,0.663,39.557,0
		c24.502-1.647,43.391-14.6,46.072-43.745c2.784-30.263-13.279-54.652-44.676-55.845c-36.764-1.396-133.562,0.465-133.562,0.465
		l-7.446,24.665l135.889-0.931c17.55,4.149,24.564,11.655,22.338,26.992c-2.003,13.8-7.758,21.855-23.269,24.199l-58.171-1.396
		c8.367,35.247,1.049,57.152-26.992,61.429L40.978,714.514z"/>
	<path d="M977.771,1056.097l0.931-112.155c-69.34-7.911-604.052,97.728-604.052,97.728l-0.465,33.972l28.388-6.05l-0.931,30.249
		l-28.388,8.377l-2.327,30.249l-34.438-1.396l13.961-249.905l72.133,128.443l22.338-6.05l-90.747-154.038l1.396-50.26
		l116.343,198.248l18.615-4.188l-132.166-219.19l32.111,0.931l131.235,214.536l19.08-3.723l0.465-21.872l-53.518-92.609l-5.119,12.1
		l-60.964-106.57l14.427-0.465l-26.526-46.537l-18.149-3.258l-28.853-51.656l2.327-53.518l200.575,358.802l24.199-5.119
		l-52.122-92.609l-5.584-131.235l111.689,181.495l10.704-20.942L530.549,712.653l-1.862-52.587L676.21,874.602l11.169-23.734
		L524.965,611.667l-2.792-47.003l-28.388-14.427l-18.149,11.634l4.188,46.537l-37.23,73.994l15.357,24.665l21.407-42.814
		l2.327,73.529l-30.249-0.465L365.807,590.26l2.792-41.418l-22.803-10.238l-16.753,11.169l-1.396,32.576l-181.96,501.671
		l26.526-6.05l151.246-428.607l-6.981,80.975l-119.601,339.256l20.476-5.584c0,0,86.072-235.654,93.912-260.767
		c-1.381,10.077-3.165,51.815-3.165,51.815l-73.994,202.902l27.922-6.981l37.23-97.263l-27.457,387.189l53.052-0.465l7.911-163.811
		l154.969-1.862l0.465,164.276l67.479,1.861l-9.307-209.883l-130.77,5.584l1.396-8.377
		C437.94,1116.596,977.771,1056.097,977.771,1056.097z M952.021,981.017l-2.172,44.365l-35.058-38.781L952.021,981.017z
		 M890.902,990.17l26.216,33.352l-61.274,6.05L890.902,990.17z M854.603,995.599l-43.745,54.604l-2.172-50.57L854.603,995.599z
		 M785.418,1001.183l-0.931,44.986l-35.058-36.919L785.418,1001.183z M726.781,1019.798l20.787,23.579l-45.917,6.515
		L726.781,1019.798z M696.066,1019.178l-30.404,41.263l-2.792-38.161L696.066,1019.178z M643.945,1023.832l-3.723,35.678
		l-25.75-30.094L643.945,1023.832z M588.41,1037.793l25.75,26.061l-44.986,7.756L588.41,1037.793z M532.255,1042.446l26.371-0.931
		l-25.751,45.606C532.876,1087.122,531.945,1044.928,532.255,1042.446z M512.089,1045.859l-1.862,36.919l-23.269-31.645
		L512.089,1045.859z M469.895,1066.335l15.512,19.235l-30.094,3.413L469.895,1066.335z M448.488,1059.51l-20.476,37.23
		l-4.343-32.576L448.488,1059.51z"/>
	<path d="M610.128,667.047c12.787-9.945,42.3-8.92,56.543-31.645c1.792-2.859,6.976-13.138,13.496,0
		c2.564,5.167,3.188,15.374,17.219,15.357c5.434-0.007,9.992,1.018,13.263-17.219c0.498-2.775,1.862-12.1,10.471-4.188
		c0,0,27.552,14.18,36.066,16.521c6.005,1.651,13.742-1.2,24.665,3.49c3.261,1.4,11.529,12.664,0,14.194
		c-15.446,2.05-43.878-1.122-60.033-16.753c-2.436-2.357-6.163-6.082-10.471,8.609c-1.415,4.826-2.407,16.177-13.263,15.125
		c-6.265-0.607-9.981-0.196-17.451-18.15c-1.245-2.993-3.025-6.748-12.798,2.094c-9.773,8.842-43.512,25.595-51.889,25.828
		C607.568,680.542,605.084,670.969,610.128,667.047z"/>
	<path d="M632.465,598.637c17.924-7.624,42.304-26.271,59.102-43.047c3.667-3.662,4.35-0.519,14.659,14.659
		c3.172,4.67,15.823,10.704,22.57-0.698c6.748-11.402,2.696-14.949,4.188-19.778c0.958-3.1,8.144-6.515,12.565-3.258
		c4.421,3.258,21.64,13.03,30.016,13.961c8.377,0.931,27.11,0.371,39.324,3.258c3.926,0.928,16.05,13.939,1.629,16.055
		c-17.417,2.556-48.584-1.54-69.108-13.496c-4.796-2.794-7.897-3.63-12.1,18.615c-1.011,5.351-5.446,20.439-20.709,6.748
		c-5.132-4.603-15.966-23.966-24.665-12.332c-10.145,13.568-39.091,34.438-56.775,36.997
		C628.785,616.955,616.345,605.494,632.465,598.637z"/>
	<path d="M571.036,1232.706c0,0,39.557,2.792,40.022,1.396c0.465-1.396-0.233-33.274-0.233-33.274l139.379,0.465l0.698,27.457
		l49.097,0.233l-1.163-120.764h52.354l0.931,33.274l48.864-0.698l0.698-21.174h67.944l-9.54,158.226l-386.026,2.56L571.036,1232.706
		z"/>
	<polygon points="577.086,1296.229 968.231,1293.902 965.439,1334.157 578.715,1337.88 	"/>
	<rect x="1085.97" y="1292.506" width="169.163" height="39.324"/>
	<polygon points="1088.297,1159.177 1170.435,1157.781 1171.366,1183.842 1247.919,1184.54 1251.177,1277.149 1086.203,1278.545 	
		"/>
	<polygon points="1265.604,1075.178 1333.315,1074.247 1352.395,1331.83 1277.936,1332.761 	"/>
	<polygon points="1362.866,1182.446 1384.971,1180.817 1383.343,1083.089 1434.766,1082.856 1436.628,1121.715 1524.583,1121.482 
		1527.143,1161.737 1552.738,1161.737 1554.832,1185.238 1502.478,1271.564 1368.916,1272.495 	"/>
	<polygon points="1372.174,1290.645 1490.844,1288.551 1458.733,1329.736 1375.199,1330.201 	"/>
	<path d="M1641.158,885.306l-536.108,43.047l-3.025,94.238l-31.645,0.465l10.704-412.785l205.927,278.525l33.972-1.396
		l-2.792-54.216l-66.781-86.792l-8.144,39.557L1082.48,571.878l2.792-87.257l295.976,396.729l26.294-1.629l-95.401-124.254
		l-3.49-67.712l-63.989-89.817l-0.698,58.637l-158.459-215.234l1.862-32.576l16.288,0.233l-15.823-21.407l-0.233-42.582
		l385.793,527.732l26.526-2.327l-200.343-272.941l-0.931-49.097l-61.662-80.277l3.49,49.329l-76.786-103.08l37.695,2.327
		l-43.512-58.637l-36.299-1.163l-32.576-45.606l2.56-84.465l471.189,640.352l28.853-2.792l-300.397-404.408l-2.094-74.227
		l349.262,440.474l1.629-39.789L1282.59,338.261l-5.584-95.169l342.514,398.591l-11.169-45.606l-334.602-383.466l-3.49-66.315
		l-35.834-0.233l-11.867,13.496l1.163,38.393l-39.557,78.415l15.59,20.011l27.922-57.241l4.654,123.324l-16.521-0.233
		l-123.323-170.326l2.327-70.736l-35.136-0.233l-12.1,14.194l-0.233,36.997L655.269,971.4l28.62-5.584l359.965-731.797
		l-4.188,63.291L712.742,961.394l33.972-3.258l289.926-593.582l-4.886,86.094L785.805,951.156l31.413-3.723l212.908-434.424
		l-5.119,97.961L865.151,938.126l37.695-4.886l118.204-244.786l-31.413,644.54l72.598,0.465l6.748-288.763l551.931-30.249
		l9.54-44.676l-42.116,2.327l-1.862-42.814l50.726-1.396L1641.158,885.306z M1129.715,961.161l42.349-1.396l-41.185,46.537
		L1129.715,961.161z M1167.177,999.555c4.421-6.283,26.759-38.626,26.759-38.626l25.595,33.972L1167.177,999.555z M1211.155,954.879
		l36.764-5.119l2.56,43.978L1211.155,954.879z M1274.446,949.062l45.606-3.258l-43.745,51.191L1274.446,949.062z M1310.977,987.688
		l40.022-40.72l36.997,37.928L1310.977,987.688z M1411.963,985.128l-38.858-45.141l38.858-1.629V985.128z M1438.256,935.566
		l43.047-0.698l-39.091,43.978L1438.256,935.566z M1475.719,979.078l36.066-38.161l32.809,36.066L1475.719,979.078z
		 M1565.536,967.211l-33.274-37.23l33.739,0.233L1565.536,967.211z"/>
	<polygon points="1095.51,818.292 1094.347,863.433 1152.518,748.021 1138.324,729.639 	"/>
	<polygon points="1137.394,904.852 1186.49,792.232 1203.011,813.173 1161.128,904.852 	"/>
	<path d="M770.681,220.057c12.1-3.956,31.413-30.947,49.795-57.706c2.133-3.105,6.304-11.93,14.659-3.49
		c5.419,5.474,12.033,18.907,27.224,14.427c4.891-1.443,11.525-4.084,11.634-16.753c0.054-6.257-2.666-25.695,8.609-23.501
		c19.673,3.827,54.914,13.03,80.044,4.421c5.05-1.73,13.503-8.023,20.011,7.446c1.85,4.397,5.297,9.249-15.125,11.634
		c-16.699,1.951-52.615,8.457-67.246,0.698c-3.726-1.976-14.805-8.479-15.357,6.981c-0.304,8.514,1.251,28.013-10.005,32.576
		c-6.47,2.623-11.894,5.286-25.595-11.169c-3.417-4.103-10.057-12.943-21.174,2.792c-10.833,15.332-27.758,42.193-51.602,54.554
		c-0.563,0.292-1.075,0.73-1.683,0.825C752.531,247.281,762.276,222.805,770.681,220.057z"/>
	<path d="M774.955,134.173c11.741-4.919,28.814-33.38,44.978-61.535c1.876-3.267,5.321-12.4,14.33-4.661
		c5.843,5.019,13.519,17.875,28.299,12.183c4.759-1.832,11.158-5,10.245-17.637c-0.451-6.241-4.73-25.396,6.685-24.119
		c19.917,2.228,55.786,8.558,80.14-2.05c4.894-2.132,12.812-9.086,20.546,5.807c2.199,4.234,6.026,8.791-14.137,12.816
		c-16.487,3.291-51.761,12.674-66.971,6.12c-3.873-1.669-15.44-7.257-14.744,8.197c0.383,8.511,3.507,27.821-7.345,33.277
		c-6.238,3.136-11.429,6.228-26.413-9.068c-3.736-3.814-11.068-12.09-20.88,4.491c-9.561,16.156-24.264,44.295-47.033,58.539
		c-0.538,0.337-1.013,0.815-1.611,0.958C759.061,162.772,766.8,137.589,774.955,134.173z"/>
	<path d="M294.838,234.484l21.174-20.709l201.273,3.49c0,0,46.537-6.748,36.532-66.548c0,0,34.67,0.698,58.404,0.931
		c23.734,0.233,35.368-46.537,0-49.795h-110.06l46.072-19.778l66.781,0.931c0,0,41.185,7.679,40.022,45.839
		c-1.163,38.16-32.809,41.418-32.809,41.418l-47.701,0.931c0,0,6.981,52.122-49.329,64.221L294.838,234.484z"/>
</g>
</svg>
